<svg enable-background="new 0 0 24 24" viewBox="0 0 24 24" xmlns="http://www.w3.org/2000/svg"><path d="m13.057 14.486c-.556-.648-1.558-.648-2.114 0l-5.328 6.216c-.774.903-.132 2.298 1.057 2.298h10.656c1.189 0 1.831-1.395 1.057-2.298zm-1.057-13.486c-6.617 0-12 5.383-12 12 0 1.854.423 3.645 1.257 5.324.245.494.844.698 1.34.451.495-.246.696-.846.451-1.34-.695-1.401-1.048-2.893-1.048-4.435 0-5.514 4.486-10 10-10s10 4.486 10 10c0 1.541-.353 3.033-1.048 4.435-.245.495-.043 1.095.452 1.34.143.071.294.104.443.104.368 0 .722-.204.897-.556.833-1.679 1.256-3.471 1.256-5.323 0-6.617-5.383-12-12-12zm0 4c-4.411 0-8 3.589-8 8 0 .534.054 1.07.16 1.593.109.541.636.892 1.179.781.541-.109.891-.637.781-1.179-.08-.392-.12-.794-.12-1.195 0-3.309 2.691-6 6-6s6 2.691 6 6c0 .399-.041.802-.12 1.196-.109.542.242 1.069.783 1.178.067.013.133.02.199.02.466 0 .884-.328.979-.802.105-.525.159-1.061.159-1.592 0-4.411-3.589-8-8-8z"/></svg>