<svg enable-background="new 0 0 24 24" viewBox="0 0 24 24" xmlns="http://www.w3.org/2000/svg"><path d="m18.654 11.008-3.115-7.008h1.461c.553 0 1-.448 1-1s-.447-1-1-1h-4.539l1.778 4h-8.723l-.597-1.394c-.157-.368-.519-.606-.919-.606h-2c-.553 0-1 .448-1 1s.447 1 1 1h1.341l2.143 5.001c-3.03.009-5.484 2.467-5.484 5.499 0 3.038 2.462 5.5 5.5 5.5s5.5-2.462 5.5-5.5c0-.924-.23-1.794-.633-2.558l4.874-5.687 1.371 3.085c-2.106.771-3.612 2.787-3.612 5.16 0 3.038 2.462 5.5 5.5 5.5s5.5-2.462 5.5-5.5c0-2.986-2.38-5.41-5.346-5.492zm-13.154 7.992c-1.379 0-2.5-1.122-2.5-2.5s1.121-2.5 2.5-2.5 2.5 1.122 2.5 2.5-1.121 2.5-2.5 2.5zm3.6-6.652c-.362-.314-.766-.58-1.202-.792l-1.524-3.556h6.453zm9.4 6.652c-1.379 0-2.5-1.122-2.5-2.5s1.121-2.5 2.5-2.5 2.5 1.122 2.5 2.5-1.121 2.5-2.5 2.5z"/></svg>