<svg enable-background="new 0 0 24 24" viewBox="0 0 24 24" xmlns="http://www.w3.org/2000/svg"><path d="m22 8.237-10.397-7.904c-.495-.377-1.149-.437-1.705-.163-.557.275-.902.832-.902 1.454v7.134l-4.786-2.576c-.726-.394-1.638-.119-2.03.609-.393.729-.12 1.638.609 2.03l5.9 3.179-5.901 3.178c-.729.392-1.002 1.301-.609 2.03.392.731 1.304 1.003 2.03.609l4.786-2.577v7.135c0 .622.345 1.179.903 1.454.231.114.479.171.724.171.347 0 .691-.113.98-.333l10.398-7.905-6.987-3.762zm-10.006-3.841 4.484 3.409-4.484 2.415zm4.484 11.798-4.484 3.409v-5.824z"/></svg>