<svg enable-background="new 0 0 24 24" viewBox="0 0 24 24" xmlns="http://www.w3.org/2000/svg"><path d="m13.342 4.789.422.211c.762.381 1.236 1.147 1.236 2 0 .553.448 1 1 1s1-.447 1-1c0-1.615-.897-3.067-2.342-3.789l-.422-.211c-.762-.381-1.236-1.147-1.236-2 0-.553-.448-1-1-1s-1 .447-1 1c0 1.615.897 3.067 2.342 3.789zm-6 0 .422.211c.762.381 1.236 1.147 1.236 2 0 .553.448 1 1 1s1-.447 1-1c0-1.615-.897-3.067-2.342-3.789l-.422-.211c-.762-.381-1.236-1.147-1.236-2 0-.553-.448-1-1-1s-1 .447-1 1c0 1.615.897 3.067 2.342 3.789zm15.658 5.211h-22c-.55 0-1 .45-1 1s.45 1 1 1h22c.55 0 1-.45 1-1s-.45-1-1-1zm-17 11.213v2.787h12v-2.787c2.474-1.614 4.24-4.201 4.796-7.213h-21.592c.556 3.012 2.322 5.598 4.796 7.213z"/></svg>