<svg enable-background="new 0 0 24 24" viewBox="0 0 24 24" xmlns="http://www.w3.org/2000/svg"><path d="m17.997 0h-11.994c-3.316 0-6.003 2.688-6.003 6.003v13.997h2v2c0 1.104.896 2 2 2s2-.896 2-2v-2h12v2c0 1.104.896 2 2 2s2-.896 2-2v-2h2v-13.997c0-3.315-2.688-6.003-6.003-6.003zm-12.997 17c-1.104 0-2-.896-2-2s.896-2 2-2 2 .896 2 2-.896 2-2 2zm6-7h-8v-3.997c0-1.656 1.347-3.003 3.003-3.003h4.997zm8 7c-1.104 0-2-.896-2-2s.896-2 2-2 2 .896 2 2-.896 2-2 2zm2-7h-8v-7h4.997c1.656 0 3.003 1.347 3.003 3.003z"/></svg>