<svg enable-background="new 0 0 24 24" viewBox="0 0 24 24" xmlns="http://www.w3.org/2000/svg"><path d="m23.578 8.156-2.472-4.944c-.678-1.356-2.063-2.212-3.578-2.212h-11.056c-1.515 0-2.9.856-3.578 2.211l-2.472 4.945c-.277.555-.422 1.167-.422 1.788v11.056c0 1.104.896 2 2 2s2-.896 2-2v-2h16v2c0 1.104.896 2 2 2s2-.896 2-2v-11.056c0-.621-.145-1.233-.422-1.788zm-18-3.603c.17-.341.513-.553.894-.553h11.056c.381 0 .724.212.895.553l2.223 4.447h-17.292zm-.578 11.447c-1.104 0-2-.896-2-2s.896-2 2-2 2 .896 2 2-.896 2-2 2zm14 0c-1.104 0-2-.896-2-2s.896-2 2-2 2 .896 2 2-.896 2-2 2z"/></svg>