<svg enable-background="new 0 0 24 24" viewBox="0 0 24 24" xmlns="http://www.w3.org/2000/svg"><path d="m15 16h2c1.103 0 2-.897 2-2 0-.552-.448-1-1-1s-1 .448-1 1h-2v-4l2-.001v.001c0 .552.448 1 1 1s1-.448 1-1c0-1.103-.897-2-2-2h-2c-1.103 0-2 .897-2 2v4c0 1.103.897 2 2 2zm-8 0h2c1.103 0 2-.897 2-2 0-.552-.448-1-1-1s-1 .448-1 1h-2v-4l2-.001v.001c0 .552.448 1 1 1s1-.448 1-1c0-1.103-.897-2-2-2h-2c-1.103 0-2 .897-2 2v4c0 1.103.897 2 2 2zm15-13h-20c-1.104 0-2 .896-2 2v14c0 1.104.896 2 2 2h20c1.104 0 2-.896 2-2v-14c0-1.104-.896-2-2-2zm-1 15h-18v-12h18z"/></svg>