<svg enable-background="new 0 0 24 24" viewBox="0 0 24 24" xmlns="http://www.w3.org/2000/svg"><path d="m14.722 9.963-4.722 2.037-2.037 4.723c-.358.831.483 1.672 1.314 1.314l4.723-2.037 2.037-4.723c.358-.83-.484-1.672-1.315-1.314zm-2.722 5.037c-.564 0-1-.437-1-1 0-.536.436-1 1-1 .536 0 1 .464 1 1 0 .563-.464 1-1 1zm2.655-10.631c.213-.412.345-.873.345-1.369 0-1.657-1.343-3-3-3s-3 1.343-3 3c0 .496.132.957.345 1.369-4.23 1.166-7.345 5.034-7.345 9.631 0 5.518 4.482 10 10 10s10-4.482 10-10c0-4.597-3.115-8.465-7.345-9.631zm-2.655-2.369c.552 0 1 .448 1 1s-.448 1-1 1-1-.448-1-1 .448-1 1-1zm0 19c-3.86 0-7-3.14-7-7s3.14-7 7-7 7 3.14 7 7-3.14 7-7 7z"/></svg>