<svg enable-background="new 0 0 24 24" viewBox="0 0 24 24" xmlns="http://www.w3.org/2000/svg"><path d="m19 18h-4.5c-1.704 0-3.229-.779-4.239-2h3.739c.552 0 1-.448 1-1s-.448-1-1-1h-4.787c-.135-.478-.213-.979-.213-1.5 0-.169.01-.335.025-.5h4.975c.552 0 1-.448 1-1s-.448-1-1-1h-4.393c.912-1.778 2.76-3 4.893-3h4.5c1.104 0 2-.896 2-2s-.896-2-2-2h-4.5c-4.372 0-8.054 2.973-9.155 7h-1.345c-.552 0-1 .448-1 1s.448 1 1 1h1.025c-.008.167-.025.331-.025.5 0 .512.052 1.01.13 1.5h-1.13c-.552 0-1 .448-1 1s.448 1 1 1h1.677c1.397 3.51 4.822 6 8.823 6h4.5c1.104 0 2-.896 2-2s-.896-2-2-2z"/></svg>