<svg enable-background="new 0 0 24 24" viewBox="0 0 24 24" xmlns="http://www.w3.org/2000/svg"><path d="m19.411 17.997c2.791-2.268 4.589-5.131 4.589-5.997 0-1.5-5.373-9-12-9-2.092 0-4.055.75-5.765 1.821l-4.528-4.528c-.391-.391-1.023-.391-1.414 0s-.391 1.023 0 1.414l22 22c.195.195.451.293.707.293s.512-.098.707-.293c.391-.391.391-1.023 0-1.414zm-3.971-3.972-5.465-5.464c.592-.355 1.283-.561 2.025-.561 2.209 0 4 1.791 4 4 0 .742-.206 1.433-.56 2.025zm-6.437.599-6.566-6.566c-1.523 1.702-2.437 3.327-2.437 3.942 0 1.5 5.373 9 12 9 1.001 0 1.967-.187 2.897-.482l-5.521-5.521c-.133-.117-.257-.24-.373-.373z"/></svg>