<svg enable-background="new 0 0 24 24" viewBox="0 0 24 24" xmlns="http://www.w3.org/2000/svg"><path d="m12 0c-6.627 0-12 5.373-12 12s5.373 12 12 12 12-5.373 12-12-5.373-12-12-12zm-1 12.465h1v-4c0-.553.447-1 1-1s1 .447 1 1v4c0 1.103-.897 2-2 2h-1c-.553 0-1-.447-1-1s.447-1 1-1zm-5-2v-2c0-.55.45-1 1-1s1 .45 1 1v2c0 .55-.45 1-1 1s-1-.45-1-1zm10.501 8.33c-1.363.788-2.919 1.205-4.501 1.205s-3.138-.417-4.501-1.205c-.478-.276-.642-.888-.364-1.366.275-.479.885-.644 1.366-.364 2.117 1.225 4.881 1.225 6.998 0 .479-.279 1.091-.114 1.366.364.278.478.114 1.09-.364 1.366zm1.499-8.33c0 .55-.45 1-1 1s-1-.45-1-1v-2c0-.55.45-1 1-1s1 .45 1 1z"/></svg>