<svg enable-background="new 0 0 24 24" viewBox="0 0 24 24" xmlns="http://www.w3.org/2000/svg"><path d="m12 7.333c-2.573 0-4.667 2.093-4.667 4.667 0 2.792-.406 5.562-1.209 8.23-.158.529.142 1.086.67 1.245.538.16 1.087-.141 1.246-.67.857-2.855 1.293-5.817 1.293-8.805 0-1.47 1.196-2.667 2.667-2.667s2.667 1.197 2.667 2.667c0 2.799-.329 5.6-.977 8.325-.128.537.204 1.077.741 1.204.078.019.155.027.232.027.452 0 .862-.309.972-.769.685-2.876 1.031-5.833 1.031-8.788.001-2.572-2.093-4.666-4.666-4.666zm0 3.667c-.553 0-1 .448-1 1 0 3.146-.459 6.27-1.363 9.285l-.428 1.428c-.158.529.142 1.086.671 1.245.096.029.192.042.287.042.431 0 .828-.28.958-.713l.428-1.428c.96-3.202 1.447-6.519 1.447-9.859 0-.552-.447-1-1-1zm0-11c-6.617 0-12 5.383-12 12v2c0 .552.447 1 1 1s1-.448 1-1v-2c0-5.514 4.486-10 10-10s10 4.486 10 10v2c0 .552.447 1 1 1s1-.448 1-1v-2c0-6.617-5.383-12-12-12zm0 3.666c-4.595 0-8.333 3.738-8.333 8.333 0 1.978-.236 3.955-.701 5.875-.13.537.199 1.077.736 1.207.538.132 1.078-.199 1.207-.736.503-2.074.758-4.209.758-6.345 0-3.492 2.841-6.333 6.333-6.333s6.333 2.841 6.333 6.333c0 1.991-.151 3.997-.45 5.96-.083.546.292 1.056.838 1.139.051.008.102.011.151.011.486 0 .912-.354.987-.85.314-2.062.474-4.169.474-6.261 0-4.594-3.738-8.333-8.333-8.333z"/></svg>