<svg enable-background="new 0 0 24 24" viewBox="0 0 24 24" xmlns="http://www.w3.org/2000/svg"><path d="m9 24h6c1.104 0 2-.896 2-2h-10c0 1.104.896 2 2 2zm6-24h-6c-1.104 0-2 .896-2 2h10c0-1.104-.896-2-2-2zm1 4h-8c-2.209 0-4 1.791-4 4v8c0 2.209 1.791 4 4 4h8c2.209 0 4-1.791 4-4v-8c0-2.209-1.791-4-4-4zm.966 7.045c-.403 2.347-2.477 4.007-4.966 5.251-2.489-1.244-4.563-2.904-4.966-5.251-.251-1.464.906-2.868 2.383-3.029 1.086-.118 2.057.411 2.583 1.248.526-.837 1.497-1.365 2.583-1.248 1.477.161 2.634 1.565 2.383 3.029z"/></svg>