<svg enable-background="new 0 0 24 24" viewBox="0 0 24 24" xmlns="http://www.w3.org/2000/svg"><path d="m11 15c4.142 0 7.5-3.358 7.5-7.5s-3.358-7.5-7.5-7.5-7.5 3.358-7.5 7.5 3.358 7.5 7.5 7.5zm5.5 6h-4v-2.118c5.637-.768 10-5.628 10-11.506 0-2.539-.799-4.951-2.311-6.974-.33-.443-.957-.534-1.399-.203s-.533.957-.202 1.399c1.251 1.676 1.912 3.674 1.912 5.778 0 5.307-4.287 9.624-9.556 9.624-2.087 0-4.068-.665-5.731-1.923l-.497-.375-2.666 1.343c-.493.249-.691.85-.443 1.343.249.493.85.692 1.344.443l1.569-.791c1.78 1.201 3.829 1.863 5.98 1.944v2.016h-4c-1.657 0-3 1.343-3 3h16c0-1.657-1.343-3-3-3z"/></svg>