<svg enable-background="new 0 0 24 24" viewBox="0 0 24 24" xmlns="http://www.w3.org/2000/svg"><path d="m5 12h1v-1c0-.552.448-1 1-1s1 .448 1 1v1h8v-1c0-.552.448-1 1-1s1 .448 1 1v1h1c2.209 0 4-1.791 4-4v-4h-7v-1c0-1.654-1.346-3-3-3h-2c-1.654 0-3 1.346-3 3v1h-7v4c0 2.209 1.791 4 4 4zm5-9c0-.551.448-1 1-1h2c.552 0 1 .449 1 1v1h-4zm12.265 10.027c-.94.613-2.061.973-3.265.973h-1v1c0 .552-.448 1-1 1s-1-.448-1-1v-1h-8v1c0 .552-.448 1-1 1s-1-.448-1-1v-1h-1c-1.204 0-2.325-.36-3.265-.973-.978.131-1.735.959-1.735 1.973v3c0 1.104.896 2 2 2 0 2.209 1.791 4 4 4h12c2.209 0 4-1.791 4-4 1.104 0 2-.896 2-2v-3c0-1.014-.757-1.842-1.735-1.973zm-7.265 6.972h-6c-.55 0-1-.45-1-1s.45-1 1-1h6c.55 0 1 .45 1 1s-.45 1-1 1z"/></svg>