<svg enable-background="new 0 0 24 24" viewBox="0 0 24 24" xmlns="http://www.w3.org/2000/svg"><path d="m2 10c-1.104 0-2 .896-2 2s.896 2 2 2 2-.896 2-2-.896-2-2-2zm0-8c-1.104 0-2 .896-2 2s.896 2 2 2 2-.896 2-2-.896-2-2-2zm0 16c-1.104 0-2 .896-2 2s.896 2 2 2 2-.896 2-2-.896-2-2-2zm8-12h12c1.104 0 2-.895 2-2s-.896-2-2-2h-12c-1.104 0-2 .895-2 2s.896 2 2 2zm12 4h-12c-1.104 0-2 .895-2 2s.896 2 2 2h12c1.104 0 2-.895 2-2s-.896-2-2-2zm0 8h-12c-1.104 0-2 .895-2 2s.896 2 2 2h12c1.104 0 2-.895 2-2s-.896-2-2-2z"/></svg>