<svg enable-background="new 0 0 24 24" viewBox="0 0 24 24" xmlns="http://www.w3.org/2000/svg"><path d="m12.002 8c-4.418 0-8 3.582-8 8s3.582 8 8 8 8-3.582 8-8-3.582-8-8-8zm3.546 7.618-1.637 1.287.685 2.147c.071.223-.011.467-.203.602-.092.064-.2.097-.308.097-.115 0-.231-.037-.327-.111l-1.757-1.355-1.767 1.356c-.186.142-.444.148-.634.014-.192-.135-.274-.378-.203-.601l.686-2.148-1.628-1.288c-.179-.141-.248-.381-.174-.596.075-.216.278-.36.506-.36h2.023l.677-2.043c.072-.219.277-.367.508-.367h.001c.23 0 .434.147.508.365l.686 2.045h2.026c.228 0 .431.145.506.361.075.214.005.453-.174.595zm7.142-13.936c-.509-1.037-1.545-1.682-2.705-1.682h-15.975c-1.157 0-2.192.644-2.701 1.68s-.383 2.245.328 3.156l3.232 4.141c.945-.954 2.081-1.716 3.344-2.232l-2.143-2.745h11.864l-2.143 2.745c1.264.516 2.399 1.278 3.344 2.231l3.228-4.135c.711-.911.837-2.121.327-3.159z"/></svg>