<svg enable-background="new 0 0 24 24" viewBox="0 0 24 24" xmlns="http://www.w3.org/2000/svg"><path d="m18 9h-1.323l-2-5h-4.677c-.553 0-1 .448-1 1s.447 1 1 1h3.323l1.2 3h-8.523c-3.314 0-6 2.686-6 6s2.686 6 6 6c2.972 0 5.434-2.164 5.91-5.001h.18c.476 2.837 2.938 5.001 5.91 5.001 3.314 0 6-2.686 6-6s-2.686-6-6-6zm-12 9c-1.654 0-3-1.346-3-3s1.346-3 3-3c1.302 0 2.401.838 2.815 1.999h-1.815c-.55 0-1 .45-1 1s.45 1 1 1h1.816c-.414 1.162-1.514 2.001-2.816 2.001zm12 0c-1.654 0-3-1.346-3-3 0-.896.402-1.691 1.026-2.241l1.045 2.613c.157.39.533.628.929.628.124 0 .25-.023.371-.072.513-.206.763-.787.558-1.3l-1.047-2.616c.04-.002.078-.012.118-.012 1.654 0 3 1.346 3 3s-1.346 3-3 3z"/></svg>