<svg enable-background="new 0 0 24 24" viewBox="0 0 24 24" xmlns="http://www.w3.org/2000/svg"><path d="m20.5 14h-2.316c1.122-1.168 1.816-2.752 1.816-4.5 0-3.59-2.91-6.5-6.5-6.5h-.5c-7.18 0-13 5.82-13 13h20.5c.827 0 1.5.673 1.5 1.5s-.673 1.5-1.5 1.5h-19.5c-.552 0-1 .447-1 1s.448 1 1 1h19.5c1.93 0 3.5-1.57 3.5-3.5s-1.57-3.5-3.5-3.5zm-14.5-2c-.552 0-1-.448-1-1s.448-1 1-1 1 .448 1 1-.448 1-1 1zm5 1c-.552 0-1-.447-1-1s.448-1 1-1c.551 0 1-.448 1-1s-.449-1-1-1h-1c-.552 0-1-.447-1-1s.448-1 1-1h1c1.654 0 3 1.346 3 3s-1.346 3-3 3z"/></svg>