<svg enable-background="new 0 0 24 24" viewBox="0 0 24 24" xmlns="http://www.w3.org/2000/svg"><path d="m21.056 2.944c-1.253-1.254-2.92-1.944-4.693-1.944-1.774 0-3.44.69-4.693 1.944-.283.282-.439.657-.439 1.057s.156.775.438 1.057c.271.271.656.426 1.057.427.401 0 .786-.156 1.057-.427 1.374-1.373 3.785-1.373 5.158 0 .688.689 1.068 1.605 1.068 2.579s-.38 1.89-1.068 2.579l-8.726 8.726c-1.374 1.373-3.784 1.373-5.158 0-.687-.69-1.067-1.605-1.067-2.579s.38-1.89 1.068-2.579l3.718-3.718c.42-.418 1.102-.418 1.522 0 .203.203.315.474.315.761 0 .288-.112.559-.315.761l-2.657 2.657c-.283.282-.439.657-.439 1.057s.156.775.438 1.057c.541.542 1.573.542 2.114 0l2.657-2.657c.767-.767 1.19-1.788 1.19-2.875 0-1.088-.422-2.109-1.19-2.875-.767-.767-1.788-1.189-2.875-1.189s-2.106.422-2.874 1.188l-3.718 3.719c-1.254 1.252-1.944 2.92-1.944 4.693s.69 3.439 1.944 4.693c1.253 1.254 2.92 1.944 4.693 1.944 1.774 0 3.44-.69 4.693-1.944l8.726-8.726c1.254-1.252 1.944-2.92 1.944-4.693s-.69-3.439-1.944-4.693z"/></svg>