<svg enable-background="new 0 0 24 24" viewBox="0 0 24 24" xmlns="http://www.w3.org/2000/svg"><path d="m12 17.918c.481-.465 1.298-2.152 1.465-4.918h-2.929c.166 2.766.983 4.453 1.464 4.918zm-5.91-4.918c.33 1.953 1.604 3.585 3.338 4.413-.481-1.194-.805-2.719-.898-4.413zm4.445-2h2.929c-.166-2.766-.983-4.453-1.464-4.918-.481.465-1.298 2.152-1.465 4.918zm-4.445 0h2.44c.093-1.694.417-3.219.898-4.413-1.734.828-3.008 2.46-3.338 4.413zm14.91-11h-20v24h20c1.104 0 2-.896 2-2v-20c0-1.104-.896-2-2-2zm-9 20c-4.418 0-8-3.582-8-8s3.582-8 8-8 8 3.582 8 8-3.582 8-8 8zm2.572-13.413c.481 1.194.805 2.719.898 4.413h2.44c-.33-1.953-1.604-3.585-3.338-4.413zm0 10.826c1.734-.828 3.008-2.459 3.338-4.413h-2.44c-.093 1.694-.417 3.219-.898 4.413z"/></svg>