<svg height="24" viewBox="0 0 24 24" width="24" xmlns="http://www.w3.org/2000/svg"><path d="m12 18c-3.86 0-7 2.243-7 5v1h14v-1c0-2.757-3.14-5-7-5zm4.9-.916a1 1 0 0 0 1.4-.173 7.915 7.915 0 0 0 1.7-4.911 8 8 0 0 0 -16 0 7.915 7.915 0 0 0 1.693 4.911 1 1 0 0 0 1.577-1.23 5.932 5.932 0 0 1 -1.27-3.681 6 6 0 0 1 12 0 5.932 5.932 0 0 1 -1.27 3.681 1 1 0 0 0 .17 1.403zm-7.9-5.084a3 3 0 1 0 3-3 3 3 0 0 0 -3 3zm3-12a12.013 12.013 0 0 0 -12 12 11.873 11.873 0 0 0 2.63 7.487 1 1 0 0 0 1.562-1.249 9.891 9.891 0 0 1 -2.192-6.238 10 10 0 0 1 20 0 9.891 9.891 0 0 1 -2.192 6.238 1 1 0 0 0 1.562 1.249 11.873 11.873 0 0 0 2.63-7.487 12.013 12.013 0 0 0 -12-12z"/></svg>