<svg enable-background="new 0 0 24 24" viewBox="0 0 24 24" xmlns="http://www.w3.org/2000/svg"><path d="m19 1h-14c-2.209 0-4 1.791-4 4v14c0 2.209 1.791 4 4 4h14c2.209 0 4-1.791 4-4v-14c0-2.209-1.791-4-4-4zm-11 17.661c0 .738-.598 1.336-1.336 1.336h-1.328c-.738-.001-1.336-.599-1.336-1.336v-5.325c0-.738.598-1.336 1.336-1.336h1.328c.738 0 1.336.598 1.336 1.336zm6 0c0 .738-.598 1.336-1.336 1.336h-1.328c-.738 0-1.336-.598-1.336-1.336v-13.329c0-.738.598-1.336 1.336-1.336h1.328c.738 0 1.336.598 1.336 1.336zm6 0c0 .738-.598 1.336-1.336 1.336h-1.328c-.738 0-1.336-.598-1.336-1.336v-9.329c0-.738.598-1.336 1.336-1.336h1.328c.738 0 1.336.598 1.336 1.336z"/></svg>