<svg enable-background="new 0 0 24 24" viewBox="0 0 24 24" xmlns="http://www.w3.org/2000/svg"><path d="m1.309 1.789 2.105 2.105c-2.155 2.215-3.414 5.2-3.414 8.331 0 4.918 2.991 9.143 7.248 10.97 1.3.558 2.752-.388 2.752-1.803v-.072c0-.807-.507-1.501-1.246-1.827-2.796-1.232-4.754-4.022-4.754-7.268 0-2.066.825-4.037 2.238-5.507l1.973 1.973c.66.66 1.789.193 1.789-.741v-7.95h-7.95c-.934 0-1.401 1.129-.741 1.789zm19.276 18.316c2.155-2.214 3.415-5.2 3.415-8.331 0-4.918-2.991-9.143-7.248-10.97-1.3-.557-2.752.389-2.752 1.804v.072c0 .807.507 1.501 1.246 1.827 2.796 1.232 4.754 4.022 4.754 7.268 0 2.066-.825 4.036-2.238 5.507l-1.973-1.973c-.66-.66-1.789-.193-1.789.741v7.95h7.95c.934 0 1.401-1.129.741-1.789z"/></svg>