<svg enable-background="new 0 0 24 24" viewBox="0 0 24 24" xmlns="http://www.w3.org/2000/svg"><path d="m20 16c-1.088 0-2.071.437-2.792 1.142l-9.219-4.033c.001-.038.011-.072.011-.109 0-.172-.03-.335-.05-.501l9.57-5.383c.683.545 1.538.884 2.48.884 2.209 0 4-1.791 4-4s-1.791-4-4-4-4 1.791-4 4c0 .172.03.335.05.501l-9.57 5.383c-.683-.545-1.538-.884-2.48-.884-2.209 0-4 1.791-4 4s1.791 4 4 4c1.088 0 2.071-.437 2.792-1.142l9.219 4.033c-.001.038-.011.072-.011.109 0 2.209 1.791 4 4 4s4-1.791 4-4-1.791-4-4-4zm0-13.25c.689 0 1.25.561 1.25 1.25s-.561 1.25-1.25 1.25-1.25-.561-1.25-1.25.561-1.25 1.25-1.25zm-16 11.5c-.689 0-1.25-.561-1.25-1.25s.561-1.25 1.25-1.25 1.25.561 1.25 1.25-.561 1.25-1.25 1.25zm16 7c-.689 0-1.25-.561-1.25-1.25s.561-1.25 1.25-1.25 1.25.561 1.25 1.25-.561 1.25-1.25 1.25z"/></svg>