<svg enable-background="new 0 0 24 24" viewBox="0 0 24 24" xmlns="http://www.w3.org/2000/svg"><path d="m23.414 10.414-3.827-3.827c-.376-.376-.885-.587-1.416-.587h-3.171v-2c-.001-1.104-.897-2-2.001-2h-10.997c-1.106 0-2.002.896-2.002 2.002v13.998h2.051c.253 2.244 2.139 4 4.449 4s4.197-1.756 4.449-4h2.101c.253 2.244 2.139 4 4.449 4s4.197-1.756 4.449-4h2.052v-6.171c0-.531-.211-1.04-.586-1.415zm-16.914 9.586c-1.378 0-2.5-1.122-2.5-2.5s1.122-2.5 2.5-2.5 2.5 1.122 2.5 2.5-1.122 2.5-2.5 2.5zm11 0c-1.378 0-2.5-1.122-2.5-2.5s1.122-2.5 2.5-2.5 2.5 1.122 2.5 2.5-1.122 2.5-2.5 2.5zm-2.5-9v-3l3.172.001 2.999 2.999z"/></svg>