<svg enable-background="new 0 0 24 24" viewBox="0 0 24 24" xmlns="http://www.w3.org/2000/svg"><path d="m23.306 17.851-2.885-1.238-7.748 2.77-.673.241-.673-.241-7.748-2.77-2.885 1.238c-.956.41-.914 1.78.066 2.13l11.24 4.019 11.241-4.019c.979-.35 1.022-1.72.065-2.13zm-22.546-10.87 11.24 4.019 11.24-4.019c.98-.35 1.022-1.72.066-2.13l-11.306-4.851-11.307 4.851c-.956.41-.913 1.78.067 2.13zm22.546 4.37-2.885-1.238-7.748 2.77-.673.241-.673-.241-7.748-2.77-2.885 1.238c-.956.41-.914 1.78.066 2.13l11.24 4.019 11.241-4.019c.979-.35 1.022-1.72.065-2.13z"/></svg>