<svg enable-background="new 0 0 24 24" viewBox="0 0 24 24" xmlns="http://www.w3.org/2000/svg"><path d="m22.501 15.768-6.511-3.768 6.511-3.768c.477-.276.641-.888.365-1.366l-.998-1.732c-.276-.478-.886-.642-1.363-.366l-6.511 3.768v-7.536c0-.552-.447-1-.998-1h-1.995c-.551 0-.998.448-.998 1v7.536l-6.509-3.768c-.477-.276-1.087-.112-1.363.366l-.997 1.732c-.275.478-.112 1.09.365 1.366l6.511 3.768-6.511 3.768c-.477.276-.641.888-.365 1.366l.998 1.732c.276.478.886.642 1.363.366l6.511-3.768v7.536c0 .552.447 1 .998 1h1.995c.551 0 .998-.448.998-1v-7.536l6.511 3.768c.477.276 1.087.112 1.363-.366l.998-1.732c.273-.478.109-1.09-.368-1.366z"/></svg>