<svg enable-background="new 0 0 24 24" viewBox="0 0 24 24" xmlns="http://www.w3.org/2000/svg"><path d="m21.392 14h-.072c-.807 0-1.501.507-1.827 1.246-1.231 2.796-4.022 4.754-7.268 4.754-2.066 0-4.037-.825-5.507-2.238l1.973-1.973c.66-.66.193-1.789-.741-1.789h-7.95v7.95c0 .934 1.129 1.401 1.789.741l2.105-2.105c2.215 2.155 5.2 3.414 8.331 3.414 4.918 0 9.143-2.991 10.97-7.248.558-1.3-.388-2.752-1.803-2.752zm.819-12.691-2.105 2.105c-2.215-2.155-5.2-3.414-8.331-3.414-4.918 0-9.143 2.991-10.97 7.248-.558 1.3.388 2.752 1.803 2.752h.072c.807 0 1.501-.507 1.827-1.246 1.231-2.796 4.022-4.754 7.268-4.754 2.066 0 4.036.825 5.507 2.238l-1.973 1.973c-.66.66-.192 1.789.741 1.789h7.95v-7.95c0-.934-1.129-1.401-1.789-.741z"/></svg>