<svg enable-background="new 0 0 24 24" viewBox="0 0 24 24" xmlns="http://www.w3.org/2000/svg"><path d="m0 18.703v3.297h3v-4.297c0-1.207.426-2.322 1.146-3.29-2.439.735-4.146 2.38-4.146 4.29zm12-7.703c2.481 0 4.5-2.019 4.5-4.5s-2.019-4.5-4.5-4.5-4.5 2.019-4.5 4.5 2.019 4.5 4.5 4.5zm-6.5-4.5c0-.444.045-.877.13-1.296-.356-.123-.732-.204-1.13-.204-1.93 0-3.5 1.57-3.5 3.5s1.57 3.5 3.5 3.5c1.052 0 1.986-.476 2.628-1.214-1.009-1.145-1.628-2.643-1.628-4.286zm14.354 7.913c.72.968 1.146 2.083 1.146 3.29v4.297h3v-3.297c0-1.91-1.707-3.555-4.146-4.29zm3.146-5.913c0-1.93-1.57-3.5-3.5-3.5-.398 0-.774.081-1.13.204.085.419.13.852.13 1.296 0 1.643-.619 3.141-1.628 4.286.642.738 1.576 1.214 2.628 1.214 1.93 0 3.5-1.57 3.5-3.5zm-11 4.5c-3.86 0-7 2.11-7 4.703v4.297h14v-4.297c0-2.593-3.14-4.703-7-4.703z"/></svg>