<svg enable-background="new 0 0 24 24" viewBox="0 0 24 24" xmlns="http://www.w3.org/2000/svg"><path d="m16.374 14.377c-2.612-1.857-6.125-1.857-8.737 0-.675.48-.834 1.416-.354 2.091.48.676 1.417.834 2.091.354 1.574-1.118 3.688-1.118 5.263 0 .263.188.567.277.867.277.469 0 .932-.219 1.224-.631.48-.675.321-1.611-.354-2.091zm-4.374 3.623c-.829 0-1.5.671-1.5 1.5s.671 1.5 1.5 1.5c.828 0 1.5-.671 1.5-1.5s-.672-1.5-1.5-1.5zm11.492-10.669c-6.551-5.774-16.433-5.774-22.983 0-.622.548-.681 1.496-.134 2.117.548.621 1.496.68 2.117.134 5.421-4.778 13.596-4.778 19.017 0 .285.251.639.375.991.375.416 0 .829-.172 1.126-.508.547-.622.487-1.57-.134-2.118zm-19.412 3.545c-.637.53-.723 1.476-.192 2.112.296.356.723.54 1.153.54.338 0 .679-.114.959-.348 3.5-2.915 8.58-2.915 12.08 0 .637.531 1.583.443 2.112-.192.53-.637.444-1.583-.192-2.112-4.612-3.842-11.307-3.841-15.92 0z"/></svg>