<?xml version="1.0" encoding="UTF-8"?>
<svg width="24px" height="24px" viewBox="0 0 24 24" version="1.1" xmlns="http://www.w3.org/2000/svg" xmlns:xlink="http://www.w3.org/1999/xlink">
    <g id="Icon/Enlarge" stroke="none" stroke-width="1" fill="none" fill-rule="evenodd">
        <path d="M21.1666667,2 C21.6266667,2 22,2.3725 22,2.83333333 L22,10.3333333 L20.3333333,10.3333333 L20.3333333,4.845 L15.0891667,10.0891667 L13.9108333,8.91083333 L19.155,3.66666667 L13.6666667,3.66666667 L13.6666667,2 L21.1666667,2 Z M22,21.1666667 C22,21.6266667 21.6275,22 21.1666667,22 L13.6666667,22 L13.6666667,20.3333333 L19.155,20.3333333 L13.9108333,15.0891667 L15.0891667,13.9108333 L20.3333333,19.155 L20.3333333,13.6666667 L22,13.6666667 L22,21.1666667 Z M2.83333333,22 C2.37333333,22 2,21.6275 2,21.1666667 L2,13.6666667 L3.66666667,13.6666667 L3.66666667,19.155 L8.91083333,13.9108333 L10.0891667,15.0891667 L4.845,20.3333333 L10.3333333,20.3333333 L10.3333333,22 L2.83333333,22 Z M2,2.83333333 C2,2.37333333 2.3725,2 2.83333333,2 L10.3333333,2 L10.3333333,3.66666667 L4.845,3.66666667 L10.0891667,8.91083333 L8.91083333,10.0891667 L3.66666667,4.845 L3.66666667,10.3333333 L2,10.3333333 L2,2.83333333 Z"></path>
    </g>
</svg>